<mxfile host="app.diagrams.net" modified="2023-07-13T10:28:55.022Z" agent="Mozilla/5.0 (Windows NT 10.0; Win64; x64) AppleWebKit/537.36 (KHTML, like Gecko) Chrome/114.0.0.0 Safari/537.36" etag="UyGkcBBswSHcly7x6mCd" version="21.6.2" type="device" pages="2">
  <diagram name="Page-1" id="ynrTqJMyG6R7cu7f0o1S">
    <mxGraphModel dx="1323" dy="707" grid="1" gridSize="10" guides="1" tooltips="1" connect="1" arrows="1" fold="1" page="1" pageScale="1" pageWidth="850" pageHeight="1100" math="0" shadow="0">
      <root>
        <mxCell id="0" />
        <mxCell id="1" parent="0" />
        <mxCell id="JJRUuggmSBThK1C-KOGh-30" style="edgeStyle=orthogonalEdgeStyle;rounded=0;orthogonalLoop=1;jettySize=auto;html=1;entryX=0;entryY=0.5;entryDx=0;entryDy=0;" parent="1" source="wR6KbDLv6IDUnvu3jIuQ-6" target="wR6KbDLv6IDUnvu3jIuQ-9" edge="1">
          <mxGeometry relative="1" as="geometry" />
        </mxCell>
        <mxCell id="wR6KbDLv6IDUnvu3jIuQ-6" value="Analys" style="rounded=0;whiteSpace=wrap;html=1;" parent="1" vertex="1">
          <mxGeometry x="-200" y="185" width="70" height="40" as="geometry" />
        </mxCell>
        <mxCell id="JJRUuggmSBThK1C-KOGh-31" style="edgeStyle=orthogonalEdgeStyle;rounded=0;orthogonalLoop=1;jettySize=auto;html=1;entryX=0;entryY=0.5;entryDx=0;entryDy=0;" parent="1" source="wR6KbDLv6IDUnvu3jIuQ-9" target="wR6KbDLv6IDUnvu3jIuQ-12" edge="1">
          <mxGeometry relative="1" as="geometry" />
        </mxCell>
        <mxCell id="wR6KbDLv6IDUnvu3jIuQ-9" value="&amp;nbsp;Design" style="rounded=0;whiteSpace=wrap;html=1;" parent="1" vertex="1">
          <mxGeometry x="-100" y="185" width="70" height="40" as="geometry" />
        </mxCell>
        <mxCell id="JJRUuggmSBThK1C-KOGh-32" style="edgeStyle=orthogonalEdgeStyle;rounded=0;orthogonalLoop=1;jettySize=auto;html=1;entryX=0;entryY=0.5;entryDx=0;entryDy=0;" parent="1" source="wR6KbDLv6IDUnvu3jIuQ-12" target="wR6KbDLv6IDUnvu3jIuQ-15" edge="1">
          <mxGeometry relative="1" as="geometry" />
        </mxCell>
        <mxCell id="wR6KbDLv6IDUnvu3jIuQ-12" value="code" style="rounded=0;whiteSpace=wrap;html=1;" parent="1" vertex="1">
          <mxGeometry y="185" width="70" height="40" as="geometry" />
        </mxCell>
        <mxCell id="wR6KbDLv6IDUnvu3jIuQ-15" value="test" style="rounded=0;whiteSpace=wrap;html=1;" parent="1" vertex="1">
          <mxGeometry x="100" y="185" width="70" height="40" as="geometry" />
        </mxCell>
        <mxCell id="JJRUuggmSBThK1C-KOGh-19" value="Increment 1" style="text;html=1;strokeColor=none;fillColor=none;align=center;verticalAlign=middle;whiteSpace=wrap;rounded=0;" parent="1" vertex="1">
          <mxGeometry x="195" y="185" width="90" height="30" as="geometry" />
        </mxCell>
        <mxCell id="JJRUuggmSBThK1C-KOGh-33" style="edgeStyle=orthogonalEdgeStyle;rounded=0;orthogonalLoop=1;jettySize=auto;html=1;entryX=0;entryY=0.5;entryDx=0;entryDy=0;" parent="1" source="JJRUuggmSBThK1C-KOGh-34" target="JJRUuggmSBThK1C-KOGh-36" edge="1">
          <mxGeometry relative="1" as="geometry" />
        </mxCell>
        <mxCell id="JJRUuggmSBThK1C-KOGh-34" value="Analys" style="rounded=0;whiteSpace=wrap;html=1;" parent="1" vertex="1">
          <mxGeometry x="-200" y="245" width="70" height="40" as="geometry" />
        </mxCell>
        <mxCell id="JJRUuggmSBThK1C-KOGh-35" style="edgeStyle=orthogonalEdgeStyle;rounded=0;orthogonalLoop=1;jettySize=auto;html=1;entryX=0;entryY=0.5;entryDx=0;entryDy=0;" parent="1" source="JJRUuggmSBThK1C-KOGh-36" target="JJRUuggmSBThK1C-KOGh-38" edge="1">
          <mxGeometry relative="1" as="geometry" />
        </mxCell>
        <mxCell id="JJRUuggmSBThK1C-KOGh-36" value="&amp;nbsp;Design" style="rounded=0;whiteSpace=wrap;html=1;" parent="1" vertex="1">
          <mxGeometry x="-100" y="245" width="70" height="40" as="geometry" />
        </mxCell>
        <mxCell id="JJRUuggmSBThK1C-KOGh-37" style="edgeStyle=orthogonalEdgeStyle;rounded=0;orthogonalLoop=1;jettySize=auto;html=1;entryX=0;entryY=0.5;entryDx=0;entryDy=0;" parent="1" source="JJRUuggmSBThK1C-KOGh-38" target="JJRUuggmSBThK1C-KOGh-39" edge="1">
          <mxGeometry relative="1" as="geometry" />
        </mxCell>
        <mxCell id="JJRUuggmSBThK1C-KOGh-38" value="code" style="rounded=0;whiteSpace=wrap;html=1;" parent="1" vertex="1">
          <mxGeometry y="245" width="70" height="40" as="geometry" />
        </mxCell>
        <mxCell id="JJRUuggmSBThK1C-KOGh-39" value="test" style="rounded=0;whiteSpace=wrap;html=1;" parent="1" vertex="1">
          <mxGeometry x="100" y="245" width="70" height="40" as="geometry" />
        </mxCell>
        <mxCell id="JJRUuggmSBThK1C-KOGh-40" value="Increment 2" style="text;html=1;strokeColor=none;fillColor=none;align=center;verticalAlign=middle;whiteSpace=wrap;rounded=0;" parent="1" vertex="1">
          <mxGeometry x="200" y="250" width="90" height="30" as="geometry" />
        </mxCell>
        <mxCell id="JJRUuggmSBThK1C-KOGh-41" style="edgeStyle=orthogonalEdgeStyle;rounded=0;orthogonalLoop=1;jettySize=auto;html=1;entryX=0;entryY=0.5;entryDx=0;entryDy=0;" parent="1" source="JJRUuggmSBThK1C-KOGh-42" target="JJRUuggmSBThK1C-KOGh-44" edge="1">
          <mxGeometry relative="1" as="geometry" />
        </mxCell>
        <mxCell id="JJRUuggmSBThK1C-KOGh-42" value="Analys" style="rounded=0;whiteSpace=wrap;html=1;" parent="1" vertex="1">
          <mxGeometry x="-200" y="305" width="70" height="40" as="geometry" />
        </mxCell>
        <mxCell id="JJRUuggmSBThK1C-KOGh-43" style="edgeStyle=orthogonalEdgeStyle;rounded=0;orthogonalLoop=1;jettySize=auto;html=1;entryX=0;entryY=0.5;entryDx=0;entryDy=0;" parent="1" source="JJRUuggmSBThK1C-KOGh-44" target="JJRUuggmSBThK1C-KOGh-46" edge="1">
          <mxGeometry relative="1" as="geometry" />
        </mxCell>
        <mxCell id="JJRUuggmSBThK1C-KOGh-44" value="&amp;nbsp;Design" style="rounded=0;whiteSpace=wrap;html=1;" parent="1" vertex="1">
          <mxGeometry x="-100" y="305" width="70" height="40" as="geometry" />
        </mxCell>
        <mxCell id="JJRUuggmSBThK1C-KOGh-45" style="edgeStyle=orthogonalEdgeStyle;rounded=0;orthogonalLoop=1;jettySize=auto;html=1;entryX=0;entryY=0.5;entryDx=0;entryDy=0;" parent="1" source="JJRUuggmSBThK1C-KOGh-46" target="JJRUuggmSBThK1C-KOGh-47" edge="1">
          <mxGeometry relative="1" as="geometry" />
        </mxCell>
        <mxCell id="JJRUuggmSBThK1C-KOGh-46" value="code" style="rounded=0;whiteSpace=wrap;html=1;" parent="1" vertex="1">
          <mxGeometry y="305" width="70" height="40" as="geometry" />
        </mxCell>
        <mxCell id="JJRUuggmSBThK1C-KOGh-47" value="test" style="rounded=0;whiteSpace=wrap;html=1;" parent="1" vertex="1">
          <mxGeometry x="100" y="305" width="70" height="40" as="geometry" />
        </mxCell>
        <mxCell id="JJRUuggmSBThK1C-KOGh-48" value="Increment 3" style="text;html=1;strokeColor=none;fillColor=none;align=center;verticalAlign=middle;whiteSpace=wrap;rounded=0;" parent="1" vertex="1">
          <mxGeometry x="200" y="305" width="90" height="30" as="geometry" />
        </mxCell>
        <mxCell id="JJRUuggmSBThK1C-KOGh-53" style="edgeStyle=orthogonalEdgeStyle;rounded=0;orthogonalLoop=1;jettySize=auto;html=1;entryX=0;entryY=0.5;entryDx=0;entryDy=0;" parent="1" source="JJRUuggmSBThK1C-KOGh-50" target="JJRUuggmSBThK1C-KOGh-51" edge="1">
          <mxGeometry relative="1" as="geometry" />
        </mxCell>
        <mxCell id="JJRUuggmSBThK1C-KOGh-50" value="Requirment&lt;br&gt;&lt;br&gt;Vertification" style="rounded=0;whiteSpace=wrap;html=1;" parent="1" vertex="1">
          <mxGeometry x="-210" y="30" width="120" height="60" as="geometry" />
        </mxCell>
        <mxCell id="JJRUuggmSBThK1C-KOGh-54" style="edgeStyle=orthogonalEdgeStyle;rounded=0;orthogonalLoop=1;jettySize=auto;html=1;" parent="1" source="JJRUuggmSBThK1C-KOGh-51" target="JJRUuggmSBThK1C-KOGh-52" edge="1">
          <mxGeometry relative="1" as="geometry" />
        </mxCell>
        <mxCell id="JJRUuggmSBThK1C-KOGh-51" value="Specification&lt;br&gt;&lt;br&gt;Vertification" style="rounded=0;whiteSpace=wrap;html=1;" parent="1" vertex="1">
          <mxGeometry x="-40" y="30" width="120" height="60" as="geometry" />
        </mxCell>
        <mxCell id="JJRUuggmSBThK1C-KOGh-55" style="edgeStyle=orthogonalEdgeStyle;rounded=0;orthogonalLoop=1;jettySize=auto;html=1;" parent="1" source="JJRUuggmSBThK1C-KOGh-52" edge="1">
          <mxGeometry relative="1" as="geometry">
            <mxPoint x="300" y="60" as="targetPoint" />
          </mxGeometry>
        </mxCell>
        <mxCell id="JJRUuggmSBThK1C-KOGh-52" value="Architecture design&lt;br&gt;&lt;br&gt;Vertification" style="rounded=0;whiteSpace=wrap;html=1;" parent="1" vertex="1">
          <mxGeometry x="140" y="30" width="120" height="60" as="geometry" />
        </mxCell>
        <mxCell id="JJRUuggmSBThK1C-KOGh-58" value="" style="shape=partialRectangle;whiteSpace=wrap;html=1;bottom=0;right=0;fillColor=none;" parent="1" vertex="1">
          <mxGeometry x="-220" y="20" width="540" height="140" as="geometry" />
        </mxCell>
        <mxCell id="JJRUuggmSBThK1C-KOGh-59" value="" style="line;strokeWidth=2;html=1;" parent="1" vertex="1">
          <mxGeometry x="-220" y="156" width="540" height="10" as="geometry" />
        </mxCell>
        <mxCell id="JJRUuggmSBThK1C-KOGh-60" value="" style="shape=partialRectangle;whiteSpace=wrap;html=1;bottom=0;right=0;fillColor=none;" parent="1" vertex="1">
          <mxGeometry x="-255" y="455" width="540" height="190" as="geometry" />
        </mxCell>
        <mxCell id="JJRUuggmSBThK1C-KOGh-61" value="+" style="text;html=1;strokeColor=none;fillColor=none;align=center;verticalAlign=middle;whiteSpace=wrap;rounded=0;" parent="1" vertex="1">
          <mxGeometry x="-260" y="330" width="60" height="30" as="geometry" />
        </mxCell>
      </root>
    </mxGraphModel>
  </diagram>
  <diagram id="G6carDIKfm53yXAt0PJ-" name="Page-2">
    <mxGraphModel dx="1244" dy="623" grid="0" gridSize="10" guides="1" tooltips="1" connect="1" arrows="1" fold="1" page="0" pageScale="1" pageWidth="850" pageHeight="1100" math="0" shadow="0">
      <root>
        <mxCell id="0" />
        <mxCell id="1" parent="0" />
      </root>
    </mxGraphModel>
  </diagram>
</mxfile>
